<?xml version="1.0" encoding="UTF-8"?>
<svg width="545px" height="584px" viewBox="0 0 545 584" version="1.1" xmlns="http://www.w3.org/2000/svg" xmlns:xlink="http://www.w3.org/1999/xlink">
    <!-- Generator: Sketch 57.1 (83088) - https://sketch.com -->
    <title>cn-tower</title>
    <desc>Created with Sketch.</desc>
    <defs>
        <linearGradient x1="-1549.99936%" y1="50%" x2="1568.50064%" y2="50%" id="linearGradient-1">
            <stop stop-color="#FEC183" offset="0%"></stop>
            <stop stop-color="#FEA981" offset="17.3%"></stop>
            <stop stop-color="#FE6B7B" offset="53.8%"></stop>
            <stop stop-color="#FF1572" offset="100%"></stop>
        </linearGradient>
        <linearGradient x1="-95.4544869%" y1="50%" x2="188.045513%" y2="50%" id="linearGradient-2">
            <stop stop-color="#FEC183" offset="0%"></stop>
            <stop stop-color="#FEA981" offset="17.3%"></stop>
            <stop stop-color="#FE6B7B" offset="53.8%"></stop>
            <stop stop-color="#FF1572" offset="100%"></stop>
        </linearGradient>
        <linearGradient x1="-199.893819%" y1="50%" x2="111.798381%" y2="50%" id="linearGradient-3">
            <stop stop-color="#FEC183" offset="0%"></stop>
            <stop stop-color="#FEA981" offset="17.3%"></stop>
            <stop stop-color="#FE6B7B" offset="53.8%"></stop>
            <stop stop-color="#FF1572" offset="100%"></stop>
        </linearGradient>
        <linearGradient x1="-19.9849017%" y1="50%" x2="291.707298%" y2="50%" id="linearGradient-4">
            <stop stop-color="#FEC183" offset="0%"></stop>
            <stop stop-color="#FEA981" offset="17.3%"></stop>
            <stop stop-color="#FE6B7B" offset="53.8%"></stop>
            <stop stop-color="#FF1572" offset="100%"></stop>
        </linearGradient>
    </defs>
    <g id="Page-1" stroke="none" stroke-width="1" fill="none" fill-rule="evenodd" opacity="0.5">
        <g id="cn-tower" fill-rule="nonzero">
            <polygon id="Path" fill="url(#linearGradient-1)" points="263 448 282 448 282 467 263 467"></polygon>
            <path d="M262.272727,0 L262.272727,19.4666667 L252.545455,19.4666667 C247.173607,19.4666667 242.818182,23.8248044 242.818182,29.2 L242.818182,68.1333333 C237.446334,68.1333333 233.090909,72.4914711 233.090909,77.8666667 L233.090909,136.266667 L203.909091,136.266667 C182.421699,136.266667 165,153.699219 165,175.2 L165,233.6 C165,255.100781 182.421699,272.533333 203.909091,272.533333 L232.867677,272.533333 C234.15008,374.086979 217.768555,475.089323 184.454545,571.025391 C183.404874,573.995769 183.86084,577.289323 185.670455,579.865234 C187.48007,582.441146 190.420099,583.98099 193.569114,584 L349.818182,584 C352.976697,584 355.935724,582.464909 357.759588,579.888998 C359.583452,577.308333 360.044168,574.005273 358.989746,571.025391 C325.675738,475.089323 309.284713,374.086979 310.538619,272.533333 L340.090909,272.533333 C361.578304,272.533333 379,255.100781 379,233.6 L379,175.2 C379,153.699219 361.578304,136.266667 340.090909,136.266667 L310.909091,136.266667 L310.909091,77.8666667 C310.909091,72.4914711 306.553667,68.1333333 301.181818,68.1333333 L301.181818,29.2 C301.181818,23.8248044 296.826394,19.4666667 291.454545,19.4666667 L281.727273,19.4666667 L281.727273,0 L262.272727,0 Z M262.272727,38.9333333 L281.727273,38.9333333 L281.727273,68.1333333 L262.272727,68.1333333 L262.272727,38.9333333 Z M336.200951,564.533333 L281.727273,564.533333 L281.727273,486.666667 L262.272727,486.666667 L262.272727,564.533333 L207.195846,564.533333 C238.211027,470.350977 253.457386,371.686914 252.312722,272.533333 L291.074574,272.533333 C289.934659,371.691667 305.18102,470.350977 336.200951,564.533333 Z M340.090909,253.066667 L203.909091,253.066667 C193.165395,253.066667 184.454545,244.350391 184.454545,233.6 L359.545455,233.6 C359.545455,244.350391 350.834606,253.066667 340.090909,253.066667 Z M359.545455,214.133333 L184.454545,214.133333 L184.454545,194.666667 L359.545455,194.666667 L359.545455,214.133333 Z M340.090909,155.733333 C350.834606,155.733333 359.545455,164.449609 359.545455,175.2 L184.454545,175.2 C184.454545,164.449609 193.165395,155.733333 203.909091,155.733333 L340.090909,155.733333 Z M291.454545,87.6 L291.454545,136.266667 L252.545455,136.266667 L252.545455,87.6 L291.454545,87.6 Z" id="Shape" fill="url(#linearGradient-2)"></path>
            <path d="M350.009582,340.444444 L350.009582,350.222222 C350.009582,355.621962 354.372975,360 359.754649,360 L535.165843,360 C540.547518,360 544.910909,355.621962 544.910909,350.222222 L544.910909,340.444444 C545.648451,329.864583 541.779927,319.480468 534.299827,311.980035 C526.824485,304.474826 516.479869,300.593316 505.930644,301.333333 L502.909103,301.333333 C494.053844,281.610677 475.838946,272 447.460246,272 C420.846889,272 399.924498,283.272135 391.797265,301.333333 L388.989848,301.333333 C378.583374,301.099393 368.529016,305.14323 361.167874,312.52908 C353.806733,319.914931 349.776424,330.003038 350.009582,340.444444 L350.009582,340.444444 Z M388.989848,320.888889 L398.734914,320.888889 C403.260089,320.888889 407.195231,317.761718 408.227789,313.340712 C411.958322,297.256076 431.69113,291.555556 447.460246,291.555556 C475.986453,291.555556 483.261946,302.312066 486.878279,314.042535 C488.15827,318.119792 491.92687,320.893663 496.185578,320.888889 L505.930644,320.888889 C511.274252,320.220486 516.632136,322.063369 520.438803,325.887587 C524.250227,329.707032 526.086944,335.082899 525.420777,340.444444 L369.499715,340.444444 C369.257041,335.187934 371.231749,330.069879 374.93849,326.34592 C378.64999,322.626736 383.750923,320.645399 388.989848,320.888889 L388.989848,320.888889 Z" id="Shape" fill="url(#linearGradient-3)"></path>
            <path d="M155.930644,58.3333333 L152.909103,58.3333333 C144.053844,38.6106768 125.838946,29 97.4602455,29 C70.8468882,29 49.9244975,40.2721351 41.7972644,58.3333333 L38.9898472,58.3333333 C28.5833734,58.0993927 18.5290157,62.1432298 11.167874,69.5290796 C3.8067322,76.9149306 -0.22357632,87.0030379 0.00958231135,97.4444444 L0.00958231135,107.222222 C0.00958231135,112.621962 4.37297415,117 9.75464808,117 L185.165843,117 C190.547518,117 194.910909,112.621962 194.910909,107.222222 L194.910909,97.4444444 C195.648451,86.8645833 191.779927,76.4804684 184.299827,68.9800353 C176.824485,61.4748258 166.479869,57.5933157 155.930644,58.3333333 Z M19.4997145,97.4444444 C19.2570404,92.1879343 21.231749,87.0698788 24.9384896,83.3459204 C28.6499895,79.6267361 33.7509227,77.645399 38.9898472,77.8888889 L48.7349136,77.8888889 C53.2600888,77.8888889 57.1952306,74.7617184 58.2277886,70.3407121 C61.9583218,54.2560758 81.6911299,48.5555556 97.4602455,48.5555556 C125.986453,48.5555556 133.261946,59.3120657 136.878279,71.0425353 C138.15827,75.1197917 141.92687,77.8936629 146.185577,77.8888889 L155.930644,77.8888889 C161.274252,77.2204861 166.632136,79.0633687 170.438803,82.8875871 C174.250227,86.7070316 176.086944,92.082899 175.420777,97.4444444 L19.4997145,97.4444444 Z" id="Shape" fill="url(#linearGradient-4)"></path>
        </g>
    </g>
</svg>