<svg xmlns="http://www.w3.org/2000/svg" width="15.094" height="15" viewBox="0 0 15.094 15">
  <g id="dribbble-ball-icon" transform="translate(0.217 -0.017)">
    <rect id="Rectangle" width="15" height="14" transform="translate(-0.217 0.017)" fill="rgba(0,0,0,0)"/>
    <circle id="Oval" cx="7.191" cy="7.191" r="7.191" transform="translate(0.496 0.25)" fill="#ea4c89"/>
    <path id="Shape" d="M7.5,15A7.5,7.5,0,0,1,4.581.59,7.5,7.5,0,1,1,7.5,15ZM8.639,8.541l-.02.008-.02.008a9.743,9.743,0,0,0-3.825,2.385,6.752,6.752,0,0,0-1.2,1.617A6.362,6.362,0,0,0,7.5,13.91a6.285,6.285,0,0,0,2.506-.513A26.709,26.709,0,0,0,8.639,8.541Zm2.518-.394a8.555,8.555,0,0,0-1.33.1,27.49,27.49,0,0,1,1.245,4.563,6.366,6.366,0,0,0,2.741-4.287A9.147,9.147,0,0,0,11.157,8.147ZM1.09,7.313v.2a6.391,6.391,0,0,0,1.643,4.279,10.435,10.435,0,0,1,1.42-1.8A9.277,9.277,0,0,1,7.939,7.565l.115-.033.137-.04C8,7.065,7.836,6.719,7.671,6.4a23.58,23.58,0,0,1-6.347.914C1.188,7.315,1.111,7.313,1.09,7.313Zm9.829-.16h0a15.972,15.972,0,0,1,2.963.287l.02,0a6.411,6.411,0,0,0-1.448-3.986A8.678,8.678,0,0,1,8.883,5.979c.163.335.3.647.423.927.021.048.04.1.059.144.026.066.051.129.08.19A11.865,11.865,0,0,1,10.919,7.152ZM4.775,1.708A6.45,6.45,0,0,0,1.228,6.19h.044A24.236,24.236,0,0,0,7.15,5.409,40.54,40.54,0,0,0,4.775,1.708Zm2.725-.6A6.531,6.531,0,0,0,6,1.277L6,1.29A34.3,34.3,0,0,1,8.387,5.027a7.232,7.232,0,0,0,3.36-2.31A6.4,6.4,0,0,0,7.5,1.106Z" transform="translate(-0.217 0.017)" fill="#c32361"/>
  </g>
</svg>
