<svg id="Group_891" data-name="Group 891" xmlns="http://www.w3.org/2000/svg" xmlns:xlink="http://www.w3.org/1999/xlink" width="482.548" height="179.402" viewBox="0 0 482.548 179.402">
  <defs>
    <clipPath id="clip-path">
      <path id="Path_1714" data-name="Path 1714" d="M-13.026-478.616c14.527,0,23.8-8.751,23.8-20.828,0-11.377-9.276-19.428-23.8-19.428s-23.8,8.751-23.8,20.128S-27.553-478.616-13.026-478.616ZM-35.079-339.47c26.429,0,41.831-15.927,41.831-40.606v-90.839H-32.8v90.489c0,7.7-3.5,11.027-8.226,11.027a19.3,19.3,0,0,1-8.926-2.275L-59.408-344.2C-53.282-341.045-44.356-339.47-35.079-339.47Zm163.125-83.663c0-32.38-24.329-49.533-52.683-49.533-30.98,0-54.258,20.478-54.258,49.533,0,28.529,22.753,49.708,57.934,49.708,19.078,0,32.555-5.251,41.831-15.4l-20.653-20.828c-6.3,4.726-11.2,7-19.953,7-9.8,0-16.452-3.851-19.253-11.2h66.51C127.7-416.656,128.045-420.332,128.045-423.132ZM75.712-445.711c8.051,0,13.827,4.726,15.4,12.777H60.31C61.885-440.985,67.486-445.711,75.712-445.711Zm118.143,72.286c23.279,0,40.781-10.677,47.082-28.354l-30.63-15.052c-4.026,8.926-9.8,12.6-16.628,12.6-8.926,0-16.277-6.3-16.277-18.9,0-12.427,7.351-18.728,16.277-18.728,6.826,0,12.6,3.676,16.628,12.6l30.63-15.052c-6.3-17.678-23.8-28.354-47.082-28.354-33.08,0-56.534,20.478-56.534,49.533C137.322-393.9,160.775-373.425,193.855-373.425ZM314.8-405.98a16.135,16.135,0,0,1-8.926,2.625c-4.726,0-8.226-3.326-8.226-9.276v-24.154h19.6v-28.879h-19.6v-26.779H258.09v26.779H244.963v28.879H258.09v24.5c0,26.429,15.4,38.856,41.831,38.856,9.276,0,18.2-1.575,24.329-5.076Zm58.809,32.555c33.255,0,49.532-15.052,49.532-32.38,0-38.331-54.958-25.379-54.958-35.355,0-2.275,2.8-4.551,12.952-4.551a56.718,56.718,0,0,1,27.654,7l10.852-26.079c-10.152-5.251-25.029-7.876-39.031-7.876-32.2,0-49.007,14.7-49.007,32.73,0,38.331,55.133,25.2,55.133,35.005,0,2.8-2.625,4.551-12.252,4.551-11.377,0-24.329-3.15-33.43-8.576L330.2-382.876C340-377.275,357.155-373.425,373.608-373.425Z" transform="translate(59.408 518.872)" fill="#fff"/>
    </clipPath>
    <linearGradient id="linear-gradient" x1="0.5" x2="0.5" y2="1" gradientUnits="objectBoundingBox">
      <stop offset="0" stop-color="#f857a6"/>
      <stop offset="1" stop-color="#ff5858"/>
    </linearGradient>
  </defs>
  <g id="Mask_Group_1" data-name="Mask Group 1" transform="translate(0)" clip-path="url(#clip-path)">
    <rect id="Rectangle_1898" data-name="Rectangle 1898" width="504" height="209" transform="translate(-7.98 -15.327)" fill="url(#linear-gradient)"/>
  </g>
</svg>
