<svg id="Git-hub-icon" xmlns="http://www.w3.org/2000/svg" width="14.728" height="14.851" viewBox="0 0 14.728 14.851">
  <path id="Path" d="M7.367,0A7.442,7.442,0,0,0,.1,6.395a7.639,7.639,0,0,0,4.944,8.443.373.373,0,0,0,.5-.367c0-.182-.006-.78-.01-1.417-2.049.46-2.48-.9-2.48-.9a1.99,1.99,0,0,0-.818-1.115c-.668-.473.05-.463.05-.463a1.555,1.555,0,0,1,1.129.784,1.535,1.535,0,0,0,2.143.63,1.646,1.646,0,0,1,.468-1.017c-1.63-.19-3.356-.843-3.356-3.761a3,3,0,0,1,.76-2.046A2.823,2.823,0,0,1,3.5,3.152s.618-.2,2.025.78a6.774,6.774,0,0,1,3.689,0c1.4-.98,2.023-.78,2.023-.78a2.828,2.828,0,0,1,.072,2.017,3,3,0,0,1,.757,2.044c0,2.925-1.722,3.568-3.362,3.757a1.855,1.855,0,0,1,.5,1.41c0,1.019-.007,1.839-.007,2.089,0,.2.132.44.5.366a7.64,7.64,0,0,0,4.932-8.442A7.442,7.442,0,0,0,7.367,0Z" transform="translate(0 0)" fill="#1d1d1d"/>
  <path id="Path-2" data-name="Path" d="M.193.128A.087.087,0,0,1,.071.152C.023.127-.013.075,0,.037A.088.088,0,0,1,.126.013C.174.039.21.09.192.128Z" transform="translate(2.599 10.803)" fill="#1d1d1d"/>
  <path id="Path-3" data-name="Path" d="M.193.211C.157.245.089.228.042.175A.119.119,0,0,1,.021.018C.057-.016.123,0,.172.053S.229.179.193.211Z" transform="translate(2.898 11.064)" fill="#1d1d1d"/>
  <path id="Path-4" data-name="Path" d="M.2.26C.152.293.076.26.033.194S-.012.046.033.013.155.013.2.077.243.227.2.26Z" transform="translate(3.183 11.454)" fill="#1d1d1d"/>
  <path id="Path-5" data-name="Path" d="M.258.256a.134.134,0,0,1-.1.025A.137.137,0,0,1,.064.222C0,.16-.019.073.022.028s.122-.034.19.029S.3.205.253.251Z" transform="translate(3.526 11.882)" fill="#1d1d1d"/>
  <path id="Path-6" data-name="Path" d="M.309.166C.291.226.209.253.125.228S-.013.132,0,.072.1-.016.187.01.325.106.309.166Z" transform="translate(4.018 12.217)" fill="#1d1d1d"/>
  <path id="Path-7" data-name="Path" d="M.316.111C.316.174.248.226.16.227S0,.179,0,.116.068,0,.157,0,.316.049.316.111Z" transform="translate(4.614 12.318)" fill="#1d1d1d"/>
  <path id="Path-8" data-name="Path" d="M.313.087C.324.148.263.213.177.228S.012.206,0,.145.052.019.138,0,.3.025.313.087Z" transform="translate(5.177 12.244)" fill="#1d1d1d"/>
</svg>
