<svg xmlns="http://www.w3.org/2000/svg" width="15" height="15" viewBox="0 0 15 15">
  <g id="iconmonstr-linkedin-5" transform="translate(0 -0.017)">
    <path id="Shape" d="M7.5,15A7.5,7.5,0,0,1,2.2,2.2,7.5,7.5,0,1,1,12.8,12.8,7.451,7.451,0,0,1,7.5,15Zm0-13.75A6.25,6.25,0,1,0,13.75,7.5,6.257,6.257,0,0,0,7.5,1.25ZM8.125,10H6.875V6.25h1.25v.683a1.387,1.387,0,0,1,1.2-.69,1.193,1.193,0,0,1,.895.386,1.854,1.854,0,0,1,.4,1.271V10H9.376V8.212c0-.584-.3-.845-.6-.845-.321,0-.646.29-.646.845V10ZM6.25,10H5V6.25H6.25V10ZM5.625,5.63A.63.63,0,1,1,6.25,5,.628.628,0,0,1,5.625,5.63Z" transform="translate(0 0.017)"/>
  </g>
</svg>
